#N canvas 0 0 1280 778 12;
#X obj 34 207 hsl 700 15 220 880 1 0 empty empty empty -2 -8 0 10 -262144
-1 -1 1200 1;
#X obj 153 229 hsl 300 15 0 100 0 0 empty empty empty -2 -8 0 10 -262144
-1 -1 500 1;
#X obj 29 353 s freq;
#X obj 150 283 t b f;
#X floatatom 29 310 5 0 0 0 - - -;
#X obj 181 310 s span;
#X obj 31 431 r freq;
#X obj 31 455 + 0;
#X floatatom 31 479 5 0 0 0 - - -;
#X obj 31 502 phasor~;
#X obj 31 526 *~ 0.4;
#X obj 108 432 r freq;
#X obj 108 456 + 0;
#X floatatom 108 480 5 0 0 0 - - -;
#X obj 108 503 phasor~;
#X obj 108 527 *~ 0.4;
#X obj 178 397 r span;
#X obj 178 421 * 1.1;
#X obj 238 432 r freq;
#X obj 238 456 + 0;
#X floatatom 238 480 5 0 0 0 - - -;
#X obj 238 503 phasor~;
#X obj 238 527 *~ 0.4;
#X obj 308 397 r span;
#X obj 308 421 * 1.2;
#X obj 359 429 r freq;
#X obj 359 453 + 0;
#X floatatom 359 477 5 0 0 0 - - -;
#X obj 359 500 phasor~;
#X obj 359 524 *~ 0.4;
#X obj 429 394 r span;
#X obj 489 429 r freq;
#X obj 489 453 + 0;
#X floatatom 489 477 5 0 0 0 - - -;
#X obj 489 500 phasor~;
#X obj 489 524 *~ 0.4;
#X obj 559 394 r span;
#X obj 429 418 * 1.3;
#X obj 559 419 * 1.4;
#X obj 520 749 dac~;
#X obj 531 689 *~ 0.1;
#X floatatom 150 258 5 0 0 0 - - -;
#X obj 638 432 r freq;
#X obj 638 456 + 0;
#X floatatom 638 480 5 0 0 0 - - -;
#X obj 638 503 phasor~;
#X obj 638 527 *~ 0.4;
#X obj 708 397 r span;
#X obj 759 429 r freq;
#X obj 759 453 + 0;
#X floatatom 759 477 5 0 0 0 - - -;
#X obj 759 500 phasor~;
#X obj 759 524 *~ 0.4;
#X obj 829 394 r span;
#X obj 889 429 r freq;
#X obj 889 453 + 0;
#X floatatom 889 477 5 0 0 0 - - -;
#X obj 889 500 phasor~;
#X obj 889 524 *~ 0.4;
#X obj 959 394 r span;
#X obj 708 421 * 1.25;
#X obj 829 418 * 1.26;
#X obj 959 419 * 1.27;
#X obj 545 554 loadbang;
#X obj 529 649 vcf~ 1;
#X msg 545 578 500;
#X obj 161 51 adc~ 3;
#X obj 161 75 lop~ 1000;
#X obj 161 99 snapshot~;
#X obj 526 29 tgl 15 0 empty empty empty 17 7 0 10 -262144 -1 -1 0
1;
#X obj 526 52 metro 10;
#X obj 405 76 lop~ 1000;
#X obj 405 100 snapshot~;
#X obj 405 52 adc~ 4;
#X obj 405 124 * 100;
#X obj 405 148 + 0;
#X obj 526 5 loadbang;
#X text 596 52 Bela sampling analog ins;
#X text 550 30 << Disable this if not on Bela;
#X obj 161 147 + 220;
#X obj 162 123 * 660;
#X text 603 657 DC-blocking is done by the bandpass in the vcf~;
#X text 600 674 Otherwise \, add a [hip~ 20];
#X text 847 34 See tutorial by Sound Simulator:;
#X text 847 49 https://www.youtube.com/watch?v=0H5wQOUrlIY;
#X connect 0 0 4 0;
#X connect 1 0 41 0;
#X connect 3 0 4 0;
#X connect 3 1 5 0;
#X connect 4 0 2 0;
#X connect 6 0 7 0;
#X connect 7 0 8 0;
#X connect 8 0 9 0;
#X connect 9 0 10 0;
#X connect 10 0 64 0;
#X connect 11 0 12 0;
#X connect 12 0 13 0;
#X connect 13 0 14 0;
#X connect 14 0 15 0;
#X connect 15 0 64 0;
#X connect 16 0 17 0;
#X connect 17 0 12 1;
#X connect 18 0 19 0;
#X connect 19 0 20 0;
#X connect 20 0 21 0;
#X connect 21 0 22 0;
#X connect 22 0 64 0;
#X connect 23 0 24 0;
#X connect 24 0 19 1;
#X connect 25 0 26 0;
#X connect 26 0 27 0;
#X connect 27 0 28 0;
#X connect 28 0 29 0;
#X connect 29 0 64 0;
#X connect 30 0 37 0;
#X connect 31 0 32 0;
#X connect 32 0 33 0;
#X connect 33 0 34 0;
#X connect 34 0 35 0;
#X connect 35 0 64 0;
#X connect 36 0 38 0;
#X connect 37 0 26 1;
#X connect 38 0 32 1;
#X connect 40 0 39 0;
#X connect 40 0 39 1;
#X connect 41 0 3 0;
#X connect 42 0 43 0;
#X connect 43 0 44 0;
#X connect 44 0 45 0;
#X connect 45 0 46 0;
#X connect 46 0 64 0;
#X connect 47 0 60 0;
#X connect 48 0 49 0;
#X connect 49 0 50 0;
#X connect 50 0 51 0;
#X connect 51 0 52 0;
#X connect 52 0 64 0;
#X connect 53 0 61 0;
#X connect 54 0 55 0;
#X connect 55 0 56 0;
#X connect 56 0 57 0;
#X connect 57 0 58 0;
#X connect 58 0 64 0;
#X connect 59 0 62 0;
#X connect 60 0 43 1;
#X connect 61 0 49 1;
#X connect 62 0 55 1;
#X connect 63 0 65 0;
#X connect 64 0 40 0;
#X connect 65 0 64 1;
#X connect 66 0 67 0;
#X connect 67 0 68 0;
#X connect 68 0 80 0;
#X connect 69 0 70 0;
#X connect 70 0 68 0;
#X connect 70 0 72 0;
#X connect 71 0 72 0;
#X connect 72 0 74 0;
#X connect 73 0 71 0;
#X connect 74 0 75 0;
#X connect 75 0 1 0;
#X connect 76 0 69 0;
#X connect 79 0 0 0;
#X connect 80 0 79 0;
